<svg width="662" height="292" viewBox="0 0 662 292" fill="none" xmlns="http://www.w3.org/2000/svg">
<path d="M301.728 174L295.008 134.352H294.624L287.712 174H274.272L264.96 106.8H277.824L280.512 126.576L282.528 148.848H283.008L286.56 126.672L289.536 106.8H300.384L303.264 126.672L306.912 148.848H307.392L309.312 126.576L312 106.8H324.864L315.552 174H301.728ZM350.139 151.824H339.867C338.523 153.488 337.851 155.568 337.851 158.064C337.851 160.56 338.555 162.512 339.963 163.92H350.139V151.824ZM329.499 124.944H353.307C357.147 127.248 359.675 129.904 360.891 132.912C362.107 135.856 362.715 139.888 362.715 145.008V159.408C362.715 164.72 362.843 169.584 363.099 174H352.155L350.427 170.544C347.931 172.848 344.411 174 339.867 174H333.819C328.379 170.416 325.659 165.264 325.659 158.544C325.659 151.76 328.443 146.416 334.011 142.512H343.035C345.531 142.512 347.867 143.28 350.043 144.816V140.016C350.043 137.52 348.955 135.856 346.779 135.024H329.499V124.944ZM392.284 124.944H402.46C405.276 128.528 407.196 132.112 408.22 135.696C409.244 139.28 409.756 143.76 409.756 149.136V174H396.988V148.176C396.988 142.096 396.156 137.712 394.492 135.024H383.74V174H370.972V124.944H380.956L382.684 128.4C384.092 127.12 385.404 126.224 386.62 125.712C387.9 125.2 389.788 124.944 392.284 124.944ZM454.811 174H445.115L443.387 170.544C441.979 171.824 440.635 172.72 439.355 173.232C438.139 173.744 436.283 174 433.787 174H425.435C422.619 171.312 420.379 167.792 418.715 163.44C417.115 159.088 416.315 154.224 416.315 148.848C416.315 143.408 417.115 138.8 418.715 135.024C420.379 131.248 422.715 127.888 425.723 124.944H433.979C437.371 124.944 440.059 125.84 442.043 127.632V106.8H454.811V174ZM442.043 135.024H432.827C430.459 139.056 429.275 144.016 429.275 149.904C429.275 155.728 430.427 160.4 432.731 163.92H442.043V135.024ZM485.21 135.024H478.01C477.05 136.176 476.25 137.776 475.61 139.824C475.034 141.872 474.746 143.856 474.746 145.776H488.474C488.602 143.856 488.346 141.872 487.706 139.824C487.066 137.712 486.234 136.112 485.21 135.024ZM498.266 163.92V174H473.882C469.402 170.992 466.234 167.28 464.378 162.864C462.586 158.384 461.69 153.872 461.69 149.328C461.69 138.832 465.658 130.704 473.594 124.944H489.146C493.434 128.08 496.346 131.408 497.882 134.928C499.418 138.448 500.186 142 500.186 145.584C500.186 149.168 499.898 152.24 499.322 154.8H475.418C475.61 156.272 476.154 157.968 477.05 159.888C478.01 161.744 479.034 163.088 480.122 163.92H498.266ZM506.724 174V124.944H515.844L518.244 130.128C520.804 126.672 524.036 124.944 527.94 124.944H531.684V137.808H519.492V174H506.724ZM594.23 106.8L580.598 174H562.549L548.918 106.8H562.742L568.022 137.904L571.286 158.064H571.862L575.126 137.904L580.406 106.8H594.23ZM599.358 174V106.8H612.51V174H599.358ZM632.612 118.32H618.116V106.8H660.164V118.32H645.668V174H632.612V118.32Z" fill="#002823"/>
<path d="M95.9434 178.746L96.7776 179.163L101.992 181.875L119.512 190.635L123.475 192.72L130.149 196.058L135.363 198.56L141.203 201.48L144.332 203.566L146.835 205.443L149.338 207.529L151.006 208.989L151.84 208.78L152.883 207.738L155.386 205.443L159.14 202.732L162.478 200.855L172.281 195.849L187.298 188.34L191.678 186.255L195.64 184.169L200.855 181.666L204.818 179.58L206.278 178.746H206.695L206.278 179.789L204.192 182.918L202.106 185.838L200.438 188.132L198.352 190.843L197.518 191.886H197.1L196.683 192.72L194.806 194.806L188.34 201.272L186.046 203.149L183.96 205.026L180.415 207.529L178.538 208.989L174.575 211.492L171.029 213.578L166.232 216.289L162.269 218.375L159.558 219.626L160.601 221.503L162.269 224.632L163.938 228.595L164.146 230.263L163.103 229.846L156.846 226.718L152.258 224.215L151.632 223.798L150.589 224.006L147.043 225.883L142.663 227.969L138.701 230.055H138.075L138.701 227.969L140.16 224.632L142.455 220.252L142.663 219.418L141.412 219L134.738 215.663L130.566 213.16L127.855 211.492L124.935 209.823L122.641 208.155L119.721 206.069L117.218 203.775L115.341 202.315L112.421 199.812L110.335 197.726L109.083 196.683L107.623 195.015L105.121 192.095L103.452 190.218L101.158 187.298L99.2805 184.795L96.1519 179.998L95.9434 178.746Z" fill="#002823"/>
<path d="M239.231 123.059H239.648L239.439 124.101L237.771 127.23L235.894 131.193L232.765 136.407L230.888 139.327L228.802 142.039L226.508 145.376L224.631 147.67L222.336 150.59L220.251 152.884L218.791 154.553L217.331 156.013L215.871 157.681L212.325 161.227L209.196 163.939L207.111 165.816L205.234 167.276L201.896 169.987L199.394 171.864L196.891 173.533L190.425 177.704L188.131 179.164L182.708 182.71L178.536 185.213L174.574 187.716L170.819 190.01L168.734 191.47L166.648 192.721L162.059 195.641L158.305 197.936L157.471 198.144L158.096 195.016L159.348 190.844L160.599 187.716L162.059 184.587L164.771 179.373L169.359 172.49L171.654 169.779L173.114 168.11L174.782 166.441L176.242 164.773L178.328 162.896L181.248 160.393L183.959 158.307L186.879 156.43L192.511 152.676L196.474 150.381L200.645 147.67L203.565 145.793L206.694 143.707L210.865 141.204L215.454 138.284L220.459 135.156L223.588 133.07L226.925 130.984L231.305 128.273L236.519 124.936L239.022 123.267L239.231 123.059Z" fill="#002823"/>
<path d="M62.5723 123.059L63.6151 123.476L66.9523 125.561L70.498 127.856L73.6266 129.733L77.1723 132.027L80.5094 134.113L85.3066 137.241L90.7294 140.579L95.318 143.499L98.238 145.376L102.201 147.879L106.372 150.59L111.169 153.51L113.881 155.387L118.261 158.307L121.598 160.81L123.475 162.479L125.769 164.356L128.481 167.067L130.775 169.987L133.069 172.699L135.572 176.244L137.867 179.999L140.787 185.63L142.455 189.801L144.124 195.224L144.749 197.727V198.353L143.707 197.936L141.621 196.476L136.824 193.556L133.278 191.261L130.149 189.176L124.935 186.047L117.009 181.041L112.212 177.913L107.832 175.201L104.912 173.116L102.409 171.447L96.5694 166.859L94.2751 164.773L91.9808 162.896L90.5208 161.436L88.2266 159.559L86.1408 157.473L84.2637 155.179L82.178 152.884L80.3008 150.59L78.0066 147.879L75.5037 144.75L72.5837 140.787L70.498 137.659L68.4123 134.113L66.7437 131.401L62.9894 124.31L62.5723 123.059Z" fill="#002823"/>
<path d="M234.642 89.0586H235.059L234.434 91.3529L232.139 97.1929L229.428 102.824L225.256 109.916L221.502 115.547L219.625 117.841L217.539 120.553L215.662 122.639L214.202 124.307L212.325 126.393L211.282 127.436L207.736 130.773L205.442 132.859L203.148 134.736L200.854 136.821L197.516 139.324L194.596 141.619L191.885 143.704L189.174 145.999L183.959 150.17L179.996 153.09L177.494 155.176L175.825 156.427H175.199L175.616 153.716L177.076 147.459L178.536 143.287L180.622 138.699L183.334 134.11L185.002 131.607L187.296 128.896L188.756 127.019L191.259 124.307L193.971 121.596L196.891 119.301L199.602 117.216L202.522 114.921L205.234 112.627L208.154 110.333L211.282 107.83L213.159 106.37L216.079 104.076L218.165 102.407L221.502 99.6957L223.796 97.8186L226.925 95.3157L232.348 91.1443L234.642 89.0586Z" fill="#002823"/>
<path d="M67.5781 89.4766L68.621 89.8937L69.2467 90.3108V90.728L70.081 91.1451L74.461 94.4823L78.2153 97.4023L80.9267 99.6966L83.221 101.574L85.7238 103.659L88.0181 105.328L91.1467 107.831L94.0667 110.125L95.9438 111.794L98.8638 114.088L102.618 117.008L105.33 119.094L108.25 121.597L110.335 123.474L113.881 127.019L115.758 129.314L118.052 132.442L120.972 137.239L122.85 140.785L124.518 144.748L126.187 150.171L127.021 154.134L127.23 156.845L125.978 156.011L123.892 154.342L121.39 152.257L119.512 150.797L117.427 149.128L115.132 147.251L112.212 144.957L108.875 142.245L105.33 139.534L102.41 137.239L100.324 135.571L97.6124 133.277L94.6924 130.774L87.8096 123.891L85.9324 121.597L84.4724 120.137L82.8038 117.842L79.8838 113.879L77.381 110.125L75.7124 107.414L73.4181 103.451L71.1238 98.6537L68.8296 93.2308L67.5781 90.1023V89.4766Z" fill="#002823"/>
<path d="M62.5723 123.059L63.6151 123.476L64.4494 124.101L64.2408 124.519H63.8237L63.4066 125.144L62.5723 123.476V123.059Z" fill="#002823"/>
<path d="M206.276 178.746H206.694L206.276 179.789L205.442 180.623V180.206H205.025L204.816 179.58L206.276 178.746Z" fill="#002823"/>
<path d="M95.9434 178.746L96.7776 179.163L97.8205 179.789L97.6119 180.206L96.7776 179.998L96.3605 180.415L95.9434 179.372V178.746Z" fill="#002823"/>
<path d="M126.812 154.133H127.021L127.23 156.844L125.978 156.01L125.77 155.593H126.604L126.812 154.133Z" fill="#002823"/>
<path d="M277.08 208.824H279.096V189.176H277.08V187H283.8V189.176H281.72V208.824H288.44V205.08H290.616V211H277.08V208.824ZM309.826 198.136C309.826 196.024 310.925 194.968 313.122 194.968H318.53C319.576 194.968 320.333 195.171 320.802 195.576C321.272 195.981 321.506 196.728 321.506 197.816V200.792L312.386 206.552V208.824H318.978V206.968H321.506V208.664C321.506 209.304 321.304 209.859 320.898 210.328C320.514 210.776 319.864 211 318.946 211H312.386C311.469 211 310.808 210.776 310.402 210.328C310.018 209.859 309.826 209.304 309.826 208.664V198.136ZM312.386 203.96L318.946 199.832V197.176H312.386V203.96ZM345.565 189.176V195H348.157V197.304H345.565V208.824H348.605V211H345.917C344.957 211 344.243 210.755 343.773 210.264C343.304 209.752 343.069 208.888 343.069 207.672V197.304H340.701V195H343.069V189.176H345.565ZM368.297 194.68H365.961L368.361 187H370.729L368.297 194.68ZM400.322 208.184C400.322 210.061 399.404 211 397.57 211H389.826V206.168H392.002V208.824H397.762V206.168L392.514 202.872C391.98 202.531 391.522 202.253 391.138 202.04C390.754 201.827 390.434 201.613 390.178 201.4C389.708 200.973 389.474 200.397 389.474 199.672V197.848C389.474 196.952 389.623 196.333 389.922 195.992C390.498 195.331 391.351 195 392.482 195H399.938V199.8H397.762V197.176H392.002V199.864L397.442 203.256C397.89 203.533 398.284 203.779 398.626 203.992C398.988 204.184 399.287 204.387 399.522 204.6C400.055 205.048 400.322 205.581 400.322 206.2V208.184ZM459.172 195.224V201.944H456.996V199.672H452.484V208.824H460.676V205.08H462.852V211H447.844V208.824H449.86V189.176H447.844V187H462.852V192.92H460.676V189.176H452.484V197.496H456.996V195.224H459.172ZM483.523 208.824L487.555 202.712L483.875 197.176H481.987V195H485.059L488.963 200.76L492.611 195H495.747V197.176H493.955L490.275 202.712L494.275 208.824H496.067V211H493.059L488.963 204.632L484.899 211H481.731V208.824H483.523ZM519.261 208.824H526.045V196.952L519.261 201.208V208.824ZM514.653 216.824H516.637V197.208H514.621V195H519.261V198.648L524.797 195.16C525.309 194.84 525.853 194.68 526.429 194.68C527.005 194.68 527.507 194.861 527.933 195.224C528.381 195.565 528.605 196.077 528.605 196.76V207.992C528.605 208.973 528.467 209.645 528.189 210.008C527.656 210.669 526.835 211 525.725 211H519.261V216.824H521.373V219H514.653V216.824ZM552.776 208.824H554.856V211H548.136V208.824H550.152V189.176H548.136V187H552.776V208.824ZM577.019 211C575.931 211 575.163 210.755 574.715 210.264C574.267 209.752 574.043 209.048 574.043 208.152V197.848C574.043 196.995 574.235 196.312 574.619 195.8C575.024 195.267 575.824 195 577.019 195H582.939C584.112 195 584.901 195.267 585.307 195.8C585.712 196.312 585.915 196.995 585.915 197.848V208.152C585.915 209.048 585.691 209.752 585.243 210.264C584.795 210.755 584.027 211 582.939 211H577.019ZM576.635 208.824H583.323V197.176H576.635V208.824ZM614.496 195C616.16 195 616.992 195.821 616.992 197.464V200.312H614.4V197.208L609.408 200.376V208.824H610.976V211H604.8V208.824H606.816V197.144H604.8V194.968H609.408V197.784L613.344 195.32C613.685 195.107 614.069 195 614.496 195ZM636.19 198.136C636.19 196.024 637.289 194.968 639.486 194.968H644.894C645.939 194.968 646.697 195.171 647.166 195.576C647.635 195.981 647.87 196.728 647.87 197.816V200.792L638.75 206.552V208.824H645.342V206.968H647.87V208.664C647.87 209.304 647.667 209.859 647.262 210.328C646.878 210.776 646.227 211 645.31 211H638.75C637.833 211 637.171 210.776 636.766 210.328C636.382 209.859 636.19 209.304 636.19 208.664V198.136ZM638.75 203.96L645.31 199.832V197.176H638.75V203.96Z" fill="black"/>
</svg>
