<svg width="611" height="166" viewBox="0 0 611 166" fill="none" xmlns="http://www.w3.org/2000/svg">
<path d="M209.752 156C208.451 156 207.437 155.659 206.712 154.976C205.987 154.272 205.624 153.312 205.624 152.096V134.56C205.624 134.155 205.731 133.845 205.944 133.632C206.157 133.397 206.445 133.28 206.808 133.28C207.192 133.28 207.491 133.397 207.704 133.632C207.917 133.845 208.024 134.155 208.024 134.56V152.16C208.024 152.715 208.173 153.163 208.472 153.504C208.792 153.845 209.208 154.016 209.72 154.016H220.376C221.208 154.016 221.624 154.347 221.624 155.008C221.624 155.328 221.517 155.573 221.304 155.744C221.091 155.915 220.781 156 220.376 156H209.752ZM231.705 156.32C228.932 156.32 226.788 155.605 225.273 154.176C223.758 152.747 223.001 150.72 223.001 148.096C223.001 145.579 223.769 143.605 225.305 142.176C226.841 140.725 228.942 140 231.609 140C233.252 140 234.713 140.267 235.993 140.8C237.273 141.312 238.265 142.048 238.969 143.008C239.694 143.947 240.057 145.024 240.057 146.24C240.057 147.136 239.801 147.829 239.289 148.32C238.798 148.811 238.116 149.056 237.241 149.056H225.401C225.401 150.699 225.956 151.989 227.065 152.928C228.174 153.845 229.721 154.304 231.705 154.304C232.921 154.304 233.966 154.176 234.841 153.92C235.716 153.643 236.537 153.205 237.305 152.608C237.71 152.267 238.041 152.096 238.297 152.096C238.489 152.096 238.67 152.181 238.841 152.352C239.14 152.608 239.289 152.875 239.289 153.152C239.289 153.365 239.161 153.6 238.905 153.856C238.03 154.688 237.006 155.307 235.833 155.712C234.66 156.117 233.284 156.32 231.705 156.32ZM236.537 147.168C236.921 147.168 237.209 147.093 237.401 146.944C237.593 146.773 237.689 146.475 237.689 146.048C237.689 145.28 237.433 144.587 236.921 143.968C236.409 143.349 235.684 142.869 234.745 142.528C233.828 142.187 232.782 142.016 231.609 142.016C229.71 142.016 228.206 142.485 227.097 143.424C226.009 144.341 225.465 145.589 225.465 147.168H236.537ZM253.553 152.832C253.788 153.024 253.905 153.248 253.905 153.504C253.905 153.717 253.809 153.973 253.617 154.272C253.169 154.891 252.55 155.392 251.761 155.776C250.972 156.139 250.161 156.32 249.329 156.32C247.921 156.32 246.812 155.904 246.001 155.072C245.19 154.24 244.785 153.099 244.785 151.648V142.272H243.057C242.204 142.272 241.777 141.941 241.777 141.28C241.777 140.981 241.884 140.747 242.097 140.576C242.332 140.405 242.652 140.32 243.057 140.32H244.785V134.848C244.785 134.443 244.881 134.133 245.073 133.92C245.286 133.685 245.585 133.568 245.969 133.568C246.332 133.568 246.609 133.685 246.801 133.92C247.014 134.133 247.121 134.443 247.121 134.848V140.32H251.473C251.857 140.32 252.156 140.405 252.369 140.576C252.604 140.725 252.721 140.96 252.721 141.28C252.721 141.941 252.305 142.272 251.473 142.272H247.121V151.84C247.121 153.483 247.889 154.304 249.425 154.304C249.916 154.304 250.364 154.208 250.769 154.016C251.174 153.824 251.58 153.515 251.985 153.088C252.305 152.747 252.614 152.576 252.913 152.576C253.105 152.576 253.318 152.661 253.553 152.832ZM256.822 140.896C256.715 140.747 256.662 140.608 256.662 140.48C256.662 140.224 256.811 139.979 257.11 139.744C257.643 139.296 258.07 138.827 258.39 138.336C258.731 137.824 258.934 137.344 258.998 136.896C258.827 136.939 258.688 136.96 258.582 136.96C258.091 136.96 257.664 136.779 257.302 136.416C256.939 136.032 256.758 135.573 256.758 135.04C256.758 134.421 256.95 133.931 257.334 133.568C257.739 133.184 258.283 132.992 258.966 132.992C259.627 132.992 260.16 133.227 260.566 133.696C260.971 134.144 261.174 134.773 261.174 135.584C261.174 136.416 260.918 137.301 260.406 138.24C259.894 139.179 259.222 140 258.39 140.704C257.942 141.045 257.611 141.216 257.398 141.216C257.206 141.216 257.014 141.109 256.822 140.896ZM271.806 156.32C270.313 156.32 268.905 156.043 267.582 155.488C266.259 154.912 265.214 154.123 264.446 153.12C264.297 152.907 264.222 152.693 264.222 152.48C264.222 152.267 264.275 152.085 264.382 151.936C264.51 151.765 264.67 151.637 264.862 151.552C265.033 151.488 265.171 151.456 265.278 151.456C265.47 151.456 265.63 151.509 265.758 151.616C265.907 151.701 266.078 151.851 266.27 152.064C267.657 153.536 269.502 154.272 271.806 154.272C272.915 154.272 273.811 154.08 274.494 153.696C275.177 153.312 275.518 152.779 275.518 152.096C275.518 151.605 275.379 151.211 275.102 150.912C274.846 150.592 274.398 150.304 273.758 150.048C273.139 149.771 272.115 149.387 270.686 148.896C269.299 148.427 268.211 147.979 267.422 147.552C266.633 147.125 266.046 146.645 265.662 146.112C265.278 145.557 265.086 144.885 265.086 144.096C265.086 142.859 265.619 141.867 266.686 141.12C267.774 140.373 269.214 140 271.006 140C272.329 140 273.555 140.235 274.686 140.704C275.817 141.152 276.67 141.76 277.246 142.528C277.417 142.763 277.502 142.987 277.502 143.2C277.502 143.52 277.331 143.776 276.99 143.968C276.777 144.096 276.563 144.16 276.35 144.16C275.987 144.16 275.646 144 275.326 143.68C274.771 143.125 274.163 142.72 273.502 142.464C272.841 142.187 271.998 142.048 270.974 142.048C269.843 142.048 268.979 142.229 268.382 142.592C267.785 142.955 267.486 143.467 267.486 144.128C267.486 144.619 267.603 145.013 267.838 145.312C268.094 145.589 268.489 145.845 269.022 146.08C269.577 146.293 270.537 146.624 271.902 147.072C273.438 147.584 274.622 148.075 275.454 148.544C276.307 148.992 276.915 149.493 277.278 150.048C277.662 150.603 277.854 151.285 277.854 152.096C277.854 153.376 277.289 154.4 276.158 155.168C275.049 155.936 273.598 156.32 271.806 156.32ZM294.532 156C293.23 156 292.217 155.659 291.492 154.976C290.766 154.293 290.404 153.333 290.404 152.096V137.44C290.404 136.245 290.756 135.307 291.46 134.624C292.185 133.941 293.188 133.6 294.468 133.6H304.388C305.22 133.6 305.636 133.941 305.636 134.624C305.636 134.923 305.529 135.157 305.316 135.328C305.102 135.499 304.793 135.584 304.388 135.584H294.5C293.988 135.584 293.572 135.755 293.252 136.096C292.953 136.437 292.804 136.885 292.804 137.44V143.552H301.956C302.788 143.552 303.204 143.893 303.204 144.576C303.204 144.896 303.086 145.141 302.852 145.312C302.638 145.483 302.34 145.568 301.956 145.568H292.804V152.16C292.804 152.715 292.953 153.163 293.252 153.504C293.572 153.845 293.988 154.016 294.5 154.016H305.092C305.924 154.016 306.34 154.347 306.34 155.008C306.34 155.328 306.222 155.573 305.988 155.744C305.774 155.915 305.476 156 305.092 156H294.532ZM322.877 154.4C323.112 154.677 323.229 154.944 323.229 155.2C323.229 155.499 323.069 155.797 322.749 156.096C322.557 156.245 322.376 156.32 322.205 156.32C321.885 156.32 321.565 156.149 321.245 155.808L315.709 149.6L310.173 155.808C309.875 156.149 309.555 156.32 309.213 156.32C309.021 156.32 308.819 156.235 308.605 156.064C308.328 155.829 308.189 155.552 308.189 155.232C308.189 154.955 308.307 154.677 308.541 154.4L314.237 147.968L308.861 141.952C308.627 141.675 308.509 141.387 308.509 141.088C308.509 140.747 308.648 140.469 308.925 140.256C309.096 140.107 309.309 140.032 309.565 140.032C309.949 140.032 310.269 140.192 310.525 140.512L315.709 146.336L320.893 140.512C321.192 140.192 321.501 140.032 321.821 140.032C322.077 140.032 322.291 140.107 322.461 140.256C322.739 140.448 322.877 140.715 322.877 141.056C322.877 141.376 322.76 141.675 322.525 141.952L317.149 147.968L322.877 154.4ZM327.985 165.568C327.622 165.568 327.334 165.451 327.121 165.216C326.929 165.003 326.833 164.693 326.833 164.288V141.28C326.833 140.875 326.929 140.565 327.121 140.352C327.334 140.117 327.622 140 327.985 140C328.369 140 328.657 140.117 328.849 140.352C329.062 140.587 329.169 140.896 329.169 141.28V143.328C330.812 141.109 333.18 140 336.273 140C338.854 140 340.881 140.715 342.353 142.144C343.846 143.573 344.593 145.536 344.593 148.032C344.593 149.717 344.252 151.189 343.569 152.448C342.886 153.685 341.905 154.645 340.625 155.328C339.366 155.989 337.884 156.32 336.177 156.32C334.705 156.32 333.404 156.064 332.273 155.552C331.164 155.019 330.14 154.187 329.201 153.056V164.288C329.201 164.672 329.094 164.981 328.881 165.216C328.668 165.451 328.369 165.568 327.985 165.568ZM336.017 154.304C337.958 154.304 339.473 153.749 340.561 152.64C341.67 151.509 342.225 149.952 342.225 147.968C342.225 146.048 341.681 144.576 340.593 143.552C339.526 142.528 337.99 142.016 335.985 142.016C333.873 142.016 332.209 142.56 330.993 143.648C329.777 144.715 329.169 146.176 329.169 148.032C329.169 149.269 329.446 150.368 330.001 151.328C330.577 152.267 331.377 153.003 332.401 153.536C333.446 154.048 334.652 154.304 336.017 154.304ZM350.033 156.32C349.67 156.32 349.382 156.213 349.169 156C348.977 155.765 348.881 155.445 348.881 155.04V132.992C348.881 132.587 348.977 132.277 349.169 132.064C349.382 131.829 349.67 131.712 350.033 131.712C350.395 131.712 350.683 131.829 350.897 132.064C351.11 132.277 351.217 132.587 351.217 132.992V155.04C351.217 155.424 351.11 155.733 350.897 155.968C350.705 156.203 350.417 156.32 350.033 156.32ZM364.333 156.32C362.477 156.32 360.888 155.947 359.565 155.2C358.242 154.453 357.24 153.461 356.557 152.224C355.896 150.965 355.565 149.611 355.565 148.16C355.565 146.709 355.896 145.365 356.557 144.128C357.24 142.869 358.242 141.867 359.565 141.12C360.888 140.373 362.477 140 364.333 140C366.189 140 367.768 140.373 369.069 141.12C370.392 141.867 371.384 142.869 372.045 144.128C372.728 145.365 373.069 146.709 373.069 148.16C373.069 149.611 372.728 150.965 372.045 152.224C371.384 153.461 370.392 154.453 369.069 155.2C367.768 155.947 366.189 156.32 364.333 156.32ZM364.333 154.304C366.253 154.304 367.789 153.76 368.941 152.672C370.114 151.584 370.701 150.08 370.701 148.16C370.701 146.24 370.114 144.736 368.941 143.648C367.789 142.56 366.253 142.016 364.333 142.016C362.392 142.016 360.834 142.56 359.661 143.648C358.509 144.736 357.933 146.24 357.933 148.16C357.933 150.08 358.509 151.584 359.661 152.672C360.834 153.76 362.392 154.304 364.333 154.304ZM377.924 156.32C377.561 156.32 377.273 156.213 377.06 156C376.868 155.765 376.772 155.445 376.772 155.04V141.28C376.772 140.875 376.868 140.565 377.06 140.352C377.252 140.117 377.54 140 377.924 140C378.287 140 378.564 140.117 378.756 140.352C378.969 140.565 379.076 140.875 379.076 141.28V143.2C380.527 141.28 382.532 140.32 385.092 140.32H385.892C386.297 140.32 386.617 140.416 386.852 140.608C387.087 140.779 387.204 141.024 387.204 141.344C387.204 141.664 387.087 141.909 386.852 142.08C386.617 142.251 386.297 142.336 385.892 142.336H384.996C383.183 142.336 381.743 142.859 380.676 143.904C379.631 144.928 379.108 146.325 379.108 148.096V155.04C379.108 155.424 379.001 155.733 378.788 155.968C378.596 156.203 378.308 156.32 377.924 156.32ZM396.955 156.32C394.182 156.32 392.038 155.605 390.523 154.176C389.008 152.747 388.251 150.72 388.251 148.096C388.251 145.579 389.019 143.605 390.555 142.176C392.091 140.725 394.192 140 396.859 140C398.502 140 399.963 140.267 401.243 140.8C402.523 141.312 403.515 142.048 404.219 143.008C404.944 143.947 405.307 145.024 405.307 146.24C405.307 147.136 405.051 147.829 404.539 148.32C404.048 148.811 403.366 149.056 402.491 149.056H390.651C390.651 150.699 391.206 151.989 392.315 152.928C393.424 153.845 394.971 154.304 396.955 154.304C398.171 154.304 399.216 154.176 400.091 153.92C400.966 153.643 401.787 153.205 402.555 152.608C402.96 152.267 403.291 152.096 403.547 152.096C403.739 152.096 403.92 152.181 404.091 152.352C404.39 152.608 404.539 152.875 404.539 153.152C404.539 153.365 404.411 153.6 404.155 153.856C403.28 154.688 402.256 155.307 401.083 155.712C399.91 156.117 398.534 156.32 396.955 156.32ZM401.787 147.168C402.171 147.168 402.459 147.093 402.651 146.944C402.843 146.773 402.939 146.475 402.939 146.048C402.939 145.28 402.683 144.587 402.171 143.968C401.659 143.349 400.934 142.869 399.995 142.528C399.078 142.187 398.032 142.016 396.859 142.016C394.96 142.016 393.456 142.485 392.347 143.424C391.259 144.341 390.715 145.589 390.715 147.168H401.787Z" fill="white"/>
<path d="M233.728 103L227.008 63.352H226.624L219.712 103H206.272L196.96 35.8H209.824L212.512 55.576L214.528 77.848H215.008L218.56 55.672L221.536 35.8H232.384L235.264 55.672L238.912 77.848H239.392L241.312 55.576L244 35.8H256.864L247.552 103H233.728ZM284.059 80.824H273.787C272.443 82.488 271.771 84.568 271.771 87.064C271.771 89.56 272.475 91.512 273.883 92.92H284.059V80.824ZM263.419 53.944H287.227C291.067 56.248 293.595 58.904 294.811 61.912C296.027 64.856 296.635 68.888 296.635 74.008V88.408C296.635 93.72 296.763 98.584 297.019 103H286.075L284.347 99.544C281.851 101.848 278.331 103 273.787 103H267.739C262.299 99.416 259.579 94.264 259.579 87.544C259.579 80.76 262.363 75.416 267.931 71.512H276.955C279.451 71.512 281.787 72.28 283.963 73.816V69.016C283.963 66.52 282.875 64.856 280.699 64.024H263.419V53.944ZM328.124 53.944H338.3C341.116 57.528 343.036 61.112 344.06 64.696C345.084 68.28 345.596 72.76 345.596 78.136V103H332.828V77.176C332.828 71.096 331.996 66.712 330.332 64.024H319.58V103H306.812V53.944H316.796L318.524 57.4C319.932 56.12 321.244 55.224 322.46 54.712C323.74 54.2 325.628 53.944 328.124 53.944ZM392.571 103H382.875L381.147 99.544C379.739 100.824 378.395 101.72 377.115 102.232C375.899 102.744 374.043 103 371.547 103H363.195C360.379 100.312 358.139 96.792 356.475 92.44C354.875 88.088 354.075 83.224 354.075 77.848C354.075 72.408 354.875 67.8 356.475 64.024C358.139 60.248 360.475 56.888 363.483 53.944H371.739C375.131 53.944 377.819 54.84 379.803 56.632V35.8H392.571V103ZM379.803 64.024H370.587C368.219 68.056 367.035 73.016 367.035 78.904C367.035 84.728 368.187 89.4 370.491 92.92H379.803V64.024ZM424.89 64.024H417.69C416.73 65.176 415.93 66.776 415.29 68.824C414.714 70.872 414.426 72.856 414.426 74.776H428.154C428.282 72.856 428.026 70.872 427.386 68.824C426.746 66.712 425.914 65.112 424.89 64.024ZM437.946 92.92V103H413.562C409.082 99.992 405.914 96.28 404.058 91.864C402.266 87.384 401.37 82.872 401.37 78.328C401.37 67.832 405.338 59.704 413.274 53.944H428.826C433.114 57.08 436.026 60.408 437.562 63.928C439.098 67.448 439.866 71 439.866 74.584C439.866 78.168 439.578 81.24 439.002 83.8H415.098C415.29 85.272 415.834 86.968 416.73 88.888C417.69 90.744 418.714 92.088 419.802 92.92H437.946ZM448.324 103V53.944H457.444L459.844 59.128C462.404 55.672 465.636 53.944 469.54 53.944H473.284V66.808H461.092V103H448.324ZM539.67 35.8L526.038 103H507.99L494.358 35.8H508.182L513.462 66.904L516.726 87.064H517.302L520.566 66.904L525.846 35.8H539.67ZM546.718 103V35.8H559.87V103H546.718ZM581.892 47.32H567.396V35.8H609.444V47.32H594.948V103H581.892V47.32Z" fill="white"/>
<path d="M33 115L33.806 115.405L38.8437 118.036L55.7702 126.538L59.5989 128.563L66.0471 131.802L71.0847 134.231L76.7269 137.065L79.7495 139.089L82.1676 140.911L84.5857 142.935L86.1977 144.352L87.0038 144.15L88.0113 143.138L90.4294 140.911L94.0565 138.279L97.2806 136.457L106.751 131.599L121.26 124.312L125.492 122.287L129.32 120.263L134.358 117.834L138.186 115.81L139.597 115H140L139.597 116.012L137.582 119.049L135.567 121.883L133.955 124.109L131.94 126.741L131.134 127.753H130.731L130.328 128.563L128.514 130.587L122.267 136.862L120.051 138.684L118.036 140.506L114.61 142.935L112.797 144.352L108.968 146.781L105.542 148.806L100.908 151.437L97.0791 153.462L94.4595 154.676L95.467 156.498L97.0791 159.534L98.6911 163.381L98.8927 165L97.8851 164.595L91.8399 161.559L87.4068 159.13L86.8023 158.725L85.7947 158.927L82.3691 160.749L78.1375 162.773L74.3088 164.798H73.7043L74.3088 162.773L75.7194 159.534L77.936 155.283L78.1375 154.474L76.9284 154.069L70.4802 150.83L66.4501 148.401L63.8305 146.781L61.0094 145.162L58.7928 143.543L55.9718 141.518L53.5537 139.291L51.7401 137.874L48.919 135.445L46.904 133.421L45.6949 132.409L44.2844 130.789L41.8663 127.955L40.2542 126.134L38.0377 123.3L36.2241 120.87L33.2015 116.215L33 115Z" fill="white"/>
<path d="M171.594 60H172L171.797 61.0278L170.173 64.1111L168.345 68.0167L165.299 73.1556L163.472 76.0333L161.442 78.7056L159.208 81.9944L157.381 84.2556L155.147 87.1333L153.117 89.3944L151.695 91.0389L150.274 92.4778L148.853 94.1222L145.401 97.6167L142.355 100.289L140.325 102.139L138.497 103.578L135.249 106.25L132.812 108.1L130.376 109.744L124.081 113.856L121.848 115.294L116.569 118.789L112.508 121.256L108.65 123.722L104.995 125.983L102.964 127.422L100.934 128.656L96.467 131.533L92.8122 133.794L92 134L92.6091 130.917L93.8274 126.806L95.0457 123.722L96.467 120.639L99.1066 115.5L103.574 108.717L105.807 106.044L107.228 104.4L108.853 102.756L110.274 101.111L112.305 99.2611L115.147 96.7944L117.787 94.7389L120.629 92.8889L126.112 89.1889L129.97 86.9278L134.03 84.2556L136.873 82.4056L139.919 80.35L143.98 77.8833L148.447 75.0056L153.32 71.9222L156.365 69.8667L159.614 67.8111L163.878 65.1389L168.954 61.85L171.391 60.2056L171.594 60Z" fill="white"/>
<path d="M0 60L1.01523 60.41L4.26396 62.4598L7.71574 64.7147L10.7614 66.5596L14.2132 68.8144L17.4619 70.8643L22.132 73.9391L27.4112 77.2188L31.8782 80.0886L34.7208 81.9335L38.5787 84.3934L42.6396 87.0582L47.3096 89.928L49.9492 91.7729L54.2132 94.6427L57.4619 97.1025L59.2893 98.7424L61.5228 100.587L64.1624 103.252L66.3959 106.122L68.6294 108.787L71.066 112.271L73.2995 115.961L76.1421 121.496L77.7665 125.596L79.3909 130.925L80 133.385V134L78.9848 133.59L76.9543 132.155L72.2843 129.285L68.8325 127.03L65.7868 124.981L60.7107 121.906L52.9949 116.986L48.3249 113.911L44.0609 111.247L41.2183 109.197L38.7817 107.557L33.0964 103.047L30.8629 100.997L28.6294 99.1524L27.2081 97.7175L24.9746 95.8726L22.9442 93.8227L21.1168 91.5679L19.0863 89.313L17.2589 87.0582L15.0254 84.3934L12.5888 81.3186L9.74619 77.4238L7.71574 74.349L5.68528 70.8643L4.06091 68.1994L0.406091 61.2299L0 60Z" fill="white"/>
<path d="M167.596 27H168L167.394 29.2477L165.171 34.969L162.544 40.4861L158.502 47.4334L154.864 52.9505L153.045 55.1981L151.024 57.8545L149.206 59.8978L147.791 61.5325L145.972 63.5759L144.962 64.5975L141.526 67.8669L139.303 69.9102L137.08 71.7492L134.857 73.7926L131.624 76.2446L128.794 78.4923L126.167 80.5356L123.54 82.7833L118.488 86.87L114.648 89.7306L112.223 91.774L110.606 93H110L110.404 90.3437L111.819 84.2136L113.233 80.1269L115.254 75.6316L117.882 71.1362L119.498 68.6842L121.721 66.0279L123.136 64.1889L125.561 61.5325L128.188 58.8762L131.017 56.6285L133.645 54.5851L136.474 52.3375L139.101 50.0898L141.93 47.8421L144.962 45.3901L146.78 43.9598L149.61 41.7121L151.631 40.0774L154.864 37.4211L157.087 35.582L160.118 33.13L165.373 29.0433L167.596 27Z" fill="white"/>
<path d="M5 27L6.01399 27.4087L6.62238 27.8173V28.226L7.43357 28.6347L11.6923 31.904L15.3427 34.7647L17.979 37.0124L20.2098 38.8514L22.6434 40.8947L24.8741 42.5294L27.9161 44.9814L30.7552 47.2291L32.5804 48.8638L35.4196 51.1115L39.0699 53.9721L41.7063 56.0155L44.5455 58.4675L46.5734 60.3065L50.021 63.7802L51.8462 66.0279L54.0769 69.0929L56.9161 73.7926L58.7413 77.2663L60.3636 81.1486L61.986 86.4613L62.7972 90.3437L63 93L61.7832 92.1827L59.7552 90.548L57.3217 88.5046L55.4965 87.0743L53.4685 85.4396L51.2378 83.6006L48.3986 81.3529L45.1538 78.6966L41.7063 76.0402L38.8671 73.7926L36.8392 72.1579L34.2028 69.9102L31.3636 67.4582L24.6713 60.7152L22.8462 58.4675L21.4266 57.0372L19.8042 54.7895L16.965 50.9071L14.5315 47.2291L12.9091 44.5728L10.6783 40.6904L8.44755 35.9907L6.21678 30.678L5 27.613V27Z" fill="white"/>
</svg>
