<svg width="415" height="284" viewBox="0 0 415 284" fill="none" xmlns="http://www.w3.org/2000/svg">
<path d="M13.752 274C12.4507 274 11.4373 273.659 10.712 272.976C9.98667 272.272 9.624 271.312 9.624 270.096V252.56C9.624 252.155 9.73067 251.845 9.944 251.632C10.1573 251.397 10.4453 251.28 10.808 251.28C11.192 251.28 11.4907 251.397 11.704 251.632C11.9173 251.845 12.024 252.155 12.024 252.56V270.16C12.024 270.715 12.1733 271.163 12.472 271.504C12.792 271.845 13.208 272.016 13.72 272.016H24.376C25.208 272.016 25.624 272.347 25.624 273.008C25.624 273.328 25.5173 273.573 25.304 273.744C25.0907 273.915 24.7813 274 24.376 274H13.752ZM35.705 274.32C32.9317 274.32 30.7877 273.605 29.273 272.176C27.7583 270.747 27.001 268.72 27.001 266.096C27.001 263.579 27.769 261.605 29.305 260.176C30.841 258.725 32.9423 258 35.609 258C37.2517 258 38.713 258.267 39.993 258.8C41.273 259.312 42.265 260.048 42.969 261.008C43.6943 261.947 44.057 263.024 44.057 264.24C44.057 265.136 43.801 265.829 43.289 266.32C42.7983 266.811 42.1157 267.056 41.241 267.056H29.401C29.401 268.699 29.9557 269.989 31.065 270.928C32.1743 271.845 33.721 272.304 35.705 272.304C36.921 272.304 37.9663 272.176 38.841 271.92C39.7157 271.643 40.537 271.205 41.305 270.608C41.7103 270.267 42.041 270.096 42.297 270.096C42.489 270.096 42.6703 270.181 42.841 270.352C43.1397 270.608 43.289 270.875 43.289 271.152C43.289 271.365 43.161 271.6 42.905 271.856C42.0303 272.688 41.0063 273.307 39.833 273.712C38.6597 274.117 37.2837 274.32 35.705 274.32ZM40.537 265.168C40.921 265.168 41.209 265.093 41.401 264.944C41.593 264.773 41.689 264.475 41.689 264.048C41.689 263.28 41.433 262.587 40.921 261.968C40.409 261.349 39.6837 260.869 38.745 260.528C37.8277 260.187 36.7823 260.016 35.609 260.016C33.7103 260.016 32.2063 260.485 31.097 261.424C30.009 262.341 29.465 263.589 29.465 265.168H40.537ZM57.553 270.832C57.7877 271.024 57.905 271.248 57.905 271.504C57.905 271.717 57.809 271.973 57.617 272.272C57.169 272.891 56.5503 273.392 55.761 273.776C54.9717 274.139 54.161 274.32 53.329 274.32C51.921 274.32 50.8117 273.904 50.001 273.072C49.1903 272.24 48.785 271.099 48.785 269.648V260.272H47.057C46.2037 260.272 45.777 259.941 45.777 259.28C45.777 258.981 45.8837 258.747 46.097 258.576C46.3317 258.405 46.6517 258.32 47.057 258.32H48.785V252.848C48.785 252.443 48.881 252.133 49.073 251.92C49.2863 251.685 49.585 251.568 49.969 251.568C50.3317 251.568 50.609 251.685 50.801 251.92C51.0143 252.133 51.121 252.443 51.121 252.848V258.32H55.473C55.857 258.32 56.1557 258.405 56.369 258.576C56.6037 258.725 56.721 258.96 56.721 259.28C56.721 259.941 56.305 260.272 55.473 260.272H51.121V269.84C51.121 271.483 51.889 272.304 53.425 272.304C53.9157 272.304 54.3637 272.208 54.769 272.016C55.1743 271.824 55.5797 271.515 55.985 271.088C56.305 270.747 56.6143 270.576 56.913 270.576C57.105 270.576 57.3183 270.661 57.553 270.832ZM60.8218 258.896C60.7151 258.747 60.6618 258.608 60.6618 258.48C60.6618 258.224 60.8111 257.979 61.1098 257.744C61.6431 257.296 62.0698 256.827 62.3898 256.336C62.7311 255.824 62.9338 255.344 62.9978 254.896C62.8271 254.939 62.6884 254.96 62.5818 254.96C62.0911 254.96 61.6644 254.779 61.3018 254.416C60.9391 254.032 60.7578 253.573 60.7578 253.04C60.7578 252.421 60.9498 251.931 61.3338 251.568C61.7391 251.184 62.2831 250.992 62.9658 250.992C63.6271 250.992 64.1604 251.227 64.5658 251.696C64.9711 252.144 65.1738 252.773 65.1738 253.584C65.1738 254.416 64.9178 255.301 64.4058 256.24C63.8938 257.179 63.2218 258 62.3898 258.704C61.9418 259.045 61.6111 259.216 61.3978 259.216C61.2058 259.216 61.0138 259.109 60.8218 258.896ZM75.806 274.32C74.3127 274.32 72.9047 274.043 71.582 273.488C70.2593 272.912 69.214 272.123 68.446 271.12C68.2967 270.907 68.222 270.693 68.222 270.48C68.222 270.267 68.2753 270.085 68.382 269.936C68.51 269.765 68.67 269.637 68.862 269.552C69.0327 269.488 69.1713 269.456 69.278 269.456C69.47 269.456 69.63 269.509 69.758 269.616C69.9073 269.701 70.078 269.851 70.27 270.064C71.6567 271.536 73.502 272.272 75.806 272.272C76.9153 272.272 77.8113 272.08 78.494 271.696C79.1767 271.312 79.518 270.779 79.518 270.096C79.518 269.605 79.3793 269.211 79.102 268.912C78.846 268.592 78.398 268.304 77.758 268.048C77.1393 267.771 76.1153 267.387 74.686 266.896C73.2993 266.427 72.2113 265.979 71.422 265.552C70.6327 265.125 70.046 264.645 69.662 264.112C69.278 263.557 69.086 262.885 69.086 262.096C69.086 260.859 69.6193 259.867 70.686 259.12C71.774 258.373 73.214 258 75.006 258C76.3287 258 77.5553 258.235 78.686 258.704C79.8167 259.152 80.67 259.76 81.246 260.528C81.4167 260.763 81.502 260.987 81.502 261.2C81.502 261.52 81.3313 261.776 80.99 261.968C80.7767 262.096 80.5633 262.16 80.35 262.16C79.9873 262.16 79.646 262 79.326 261.68C78.7713 261.125 78.1633 260.72 77.502 260.464C76.8407 260.187 75.998 260.048 74.974 260.048C73.8433 260.048 72.9793 260.229 72.382 260.592C71.7847 260.955 71.486 261.467 71.486 262.128C71.486 262.619 71.6033 263.013 71.838 263.312C72.094 263.589 72.4887 263.845 73.022 264.08C73.5767 264.293 74.5367 264.624 75.902 265.072C77.438 265.584 78.622 266.075 79.454 266.544C80.3073 266.992 80.9153 267.493 81.278 268.048C81.662 268.603 81.854 269.285 81.854 270.096C81.854 271.376 81.2887 272.4 80.158 273.168C79.0487 273.936 77.598 274.32 75.806 274.32ZM98.5318 274C97.2304 274 96.2171 273.659 95.4918 272.976C94.7664 272.293 94.4038 271.333 94.4038 270.096V255.44C94.4038 254.245 94.7558 253.307 95.4598 252.624C96.1851 251.941 97.1878 251.6 98.4678 251.6H108.388C109.22 251.6 109.636 251.941 109.636 252.624C109.636 252.923 109.529 253.157 109.316 253.328C109.102 253.499 108.793 253.584 108.388 253.584H98.4998C97.9878 253.584 97.5718 253.755 97.2518 254.096C96.9531 254.437 96.8038 254.885 96.8038 255.44V261.552H105.956C106.788 261.552 107.204 261.893 107.204 262.576C107.204 262.896 107.086 263.141 106.852 263.312C106.638 263.483 106.34 263.568 105.956 263.568H96.8038V270.16C96.8038 270.715 96.9531 271.163 97.2518 271.504C97.5718 271.845 97.9878 272.016 98.4998 272.016H109.092C109.924 272.016 110.34 272.347 110.34 273.008C110.34 273.328 110.222 273.573 109.988 273.744C109.774 273.915 109.476 274 109.092 274H98.5318ZM126.877 272.4C127.112 272.677 127.229 272.944 127.229 273.2C127.229 273.499 127.069 273.797 126.749 274.096C126.557 274.245 126.376 274.32 126.205 274.32C125.885 274.32 125.565 274.149 125.245 273.808L119.709 267.6L114.173 273.808C113.875 274.149 113.555 274.32 113.213 274.32C113.021 274.32 112.819 274.235 112.605 274.064C112.328 273.829 112.189 273.552 112.189 273.232C112.189 272.955 112.307 272.677 112.541 272.4L118.237 265.968L112.861 259.952C112.627 259.675 112.509 259.387 112.509 259.088C112.509 258.747 112.648 258.469 112.925 258.256C113.096 258.107 113.309 258.032 113.565 258.032C113.949 258.032 114.269 258.192 114.525 258.512L119.709 264.336L124.893 258.512C125.192 258.192 125.501 258.032 125.821 258.032C126.077 258.032 126.291 258.107 126.461 258.256C126.739 258.448 126.877 258.715 126.877 259.056C126.877 259.376 126.76 259.675 126.525 259.952L121.149 265.968L126.877 272.4ZM131.985 283.568C131.622 283.568 131.334 283.451 131.121 283.216C130.929 283.003 130.833 282.693 130.833 282.288V259.28C130.833 258.875 130.929 258.565 131.121 258.352C131.334 258.117 131.622 258 131.985 258C132.369 258 132.657 258.117 132.849 258.352C133.062 258.587 133.169 258.896 133.169 259.28V261.328C134.812 259.109 137.18 258 140.273 258C142.854 258 144.881 258.715 146.353 260.144C147.846 261.573 148.593 263.536 148.593 266.032C148.593 267.717 148.252 269.189 147.569 270.448C146.886 271.685 145.905 272.645 144.625 273.328C143.366 273.989 141.884 274.32 140.177 274.32C138.705 274.32 137.404 274.064 136.273 273.552C135.164 273.019 134.14 272.187 133.201 271.056V282.288C133.201 282.672 133.094 282.981 132.881 283.216C132.668 283.451 132.369 283.568 131.985 283.568ZM140.017 272.304C141.958 272.304 143.473 271.749 144.561 270.64C145.67 269.509 146.225 267.952 146.225 265.968C146.225 264.048 145.681 262.576 144.593 261.552C143.526 260.528 141.99 260.016 139.985 260.016C137.873 260.016 136.209 260.56 134.993 261.648C133.777 262.715 133.169 264.176 133.169 266.032C133.169 267.269 133.446 268.368 134.001 269.328C134.577 270.267 135.377 271.003 136.401 271.536C137.446 272.048 138.652 272.304 140.017 272.304ZM154.033 274.32C153.67 274.32 153.382 274.213 153.169 274C152.977 273.765 152.881 273.445 152.881 273.04V250.992C152.881 250.587 152.977 250.277 153.169 250.064C153.382 249.829 153.67 249.712 154.033 249.712C154.395 249.712 154.683 249.829 154.897 250.064C155.11 250.277 155.217 250.587 155.217 250.992V273.04C155.217 273.424 155.11 273.733 154.897 273.968C154.705 274.203 154.417 274.32 154.033 274.32ZM168.333 274.32C166.477 274.32 164.888 273.947 163.565 273.2C162.242 272.453 161.24 271.461 160.557 270.224C159.896 268.965 159.565 267.611 159.565 266.16C159.565 264.709 159.896 263.365 160.557 262.128C161.24 260.869 162.242 259.867 163.565 259.12C164.888 258.373 166.477 258 168.333 258C170.189 258 171.768 258.373 173.069 259.12C174.392 259.867 175.384 260.869 176.045 262.128C176.728 263.365 177.069 264.709 177.069 266.16C177.069 267.611 176.728 268.965 176.045 270.224C175.384 271.461 174.392 272.453 173.069 273.2C171.768 273.947 170.189 274.32 168.333 274.32ZM168.333 272.304C170.253 272.304 171.789 271.76 172.941 270.672C174.114 269.584 174.701 268.08 174.701 266.16C174.701 264.24 174.114 262.736 172.941 261.648C171.789 260.56 170.253 260.016 168.333 260.016C166.392 260.016 164.834 260.56 163.661 261.648C162.509 262.736 161.933 264.24 161.933 266.16C161.933 268.08 162.509 269.584 163.661 270.672C164.834 271.76 166.392 272.304 168.333 272.304ZM181.924 274.32C181.561 274.32 181.273 274.213 181.06 274C180.868 273.765 180.772 273.445 180.772 273.04V259.28C180.772 258.875 180.868 258.565 181.06 258.352C181.252 258.117 181.54 258 181.924 258C182.287 258 182.564 258.117 182.756 258.352C182.969 258.565 183.076 258.875 183.076 259.28V261.2C184.527 259.28 186.532 258.32 189.092 258.32H189.892C190.297 258.32 190.617 258.416 190.852 258.608C191.087 258.779 191.204 259.024 191.204 259.344C191.204 259.664 191.087 259.909 190.852 260.08C190.617 260.251 190.297 260.336 189.892 260.336H188.996C187.183 260.336 185.743 260.859 184.676 261.904C183.631 262.928 183.108 264.325 183.108 266.096V273.04C183.108 273.424 183.001 273.733 182.788 273.968C182.596 274.203 182.308 274.32 181.924 274.32ZM200.955 274.32C198.182 274.32 196.038 273.605 194.523 272.176C193.008 270.747 192.251 268.72 192.251 266.096C192.251 263.579 193.019 261.605 194.555 260.176C196.091 258.725 198.192 258 200.859 258C202.502 258 203.963 258.267 205.243 258.8C206.523 259.312 207.515 260.048 208.219 261.008C208.944 261.947 209.307 263.024 209.307 264.24C209.307 265.136 209.051 265.829 208.539 266.32C208.048 266.811 207.366 267.056 206.491 267.056H194.651C194.651 268.699 195.206 269.989 196.315 270.928C197.424 271.845 198.971 272.304 200.955 272.304C202.171 272.304 203.216 272.176 204.091 271.92C204.966 271.643 205.787 271.205 206.555 270.608C206.96 270.267 207.291 270.096 207.547 270.096C207.739 270.096 207.92 270.181 208.091 270.352C208.39 270.608 208.539 270.875 208.539 271.152C208.539 271.365 208.411 271.6 208.155 271.856C207.28 272.688 206.256 273.307 205.083 273.712C203.91 274.117 202.534 274.32 200.955 274.32ZM205.787 265.168C206.171 265.168 206.459 265.093 206.651 264.944C206.843 264.773 206.939 264.475 206.939 264.048C206.939 263.28 206.683 262.587 206.171 261.968C205.659 261.349 204.934 260.869 203.995 260.528C203.078 260.187 202.032 260.016 200.859 260.016C198.96 260.016 197.456 260.485 196.347 261.424C195.259 262.341 194.715 263.589 194.715 265.168H205.787Z" fill="white"/>
<path d="M37.728 221L31.008 181.352H30.624L23.712 221H10.272L0.96 153.8H13.824L16.512 173.576L18.528 195.848H19.008L22.56 173.672L25.536 153.8H36.384L39.264 173.672L42.912 195.848H43.392L45.312 173.576L48 153.8H60.864L51.552 221H37.728ZM88.059 198.824H77.787C76.443 200.488 75.771 202.568 75.771 205.064C75.771 207.56 76.475 209.512 77.883 210.92H88.059V198.824ZM67.419 171.944H91.227C95.067 174.248 97.595 176.904 98.811 179.912C100.027 182.856 100.635 186.888 100.635 192.008V206.408C100.635 211.72 100.763 216.584 101.019 221H90.075L88.347 217.544C85.851 219.848 82.331 221 77.787 221H71.739C66.299 217.416 63.579 212.264 63.579 205.544C63.579 198.76 66.363 193.416 71.931 189.512H80.955C83.451 189.512 85.787 190.28 87.963 191.816V187.016C87.963 184.52 86.875 182.856 84.699 182.024H67.419V171.944ZM132.124 171.944H142.3C145.116 175.528 147.036 179.112 148.06 182.696C149.084 186.28 149.596 190.76 149.596 196.136V221H136.828V195.176C136.828 189.096 135.996 184.712 134.332 182.024H123.58V221H110.812V171.944H120.796L122.524 175.4C123.932 174.12 125.244 173.224 126.46 172.712C127.74 172.2 129.628 171.944 132.124 171.944ZM196.571 221H186.875L185.147 217.544C183.739 218.824 182.395 219.72 181.115 220.232C179.899 220.744 178.043 221 175.547 221H167.195C164.379 218.312 162.139 214.792 160.475 210.44C158.875 206.088 158.075 201.224 158.075 195.848C158.075 190.408 158.875 185.8 160.475 182.024C162.139 178.248 164.475 174.888 167.483 171.944H175.739C179.131 171.944 181.819 172.84 183.803 174.632V153.8H196.571V221ZM183.803 182.024H174.587C172.219 186.056 171.035 191.016 171.035 196.904C171.035 202.728 172.187 207.4 174.491 210.92H183.803V182.024ZM228.89 182.024H221.69C220.73 183.176 219.93 184.776 219.29 186.824C218.714 188.872 218.426 190.856 218.426 192.776H232.154C232.282 190.856 232.026 188.872 231.386 186.824C230.746 184.712 229.914 183.112 228.89 182.024ZM241.946 210.92V221H217.562C213.082 217.992 209.914 214.28 208.058 209.864C206.266 205.384 205.37 200.872 205.37 196.328C205.37 185.832 209.338 177.704 217.274 171.944H232.826C237.114 175.08 240.026 178.408 241.562 181.928C243.098 185.448 243.866 189 243.866 192.584C243.866 196.168 243.578 199.24 243.002 201.8H219.098C219.29 203.272 219.834 204.968 220.73 206.888C221.69 208.744 222.714 210.088 223.802 210.92H241.946ZM252.324 221V171.944H261.444L263.844 177.128C266.404 173.672 269.636 171.944 273.54 171.944H277.284V184.808H265.092V221H252.324ZM343.67 153.8L330.038 221H311.99L298.358 153.8H312.182L317.462 184.904L320.726 205.064H321.302L324.566 184.904L329.846 153.8H343.67ZM350.718 221V153.8H363.87V221H350.718ZM385.892 165.32H371.396V153.8H413.444V165.32H398.948V221H385.892V165.32Z" fill="white"/>
<path d="M155 88L155.806 88.4049L160.844 91.0364L177.77 99.5385L181.599 101.563L188.047 104.802L193.085 107.231L198.727 110.065L201.75 112.089L204.168 113.911L206.586 115.935L208.198 117.352L209.004 117.15L210.011 116.138L212.429 113.911L216.056 111.279L219.281 109.457L228.751 104.599L243.26 97.3117L247.492 95.2874L251.32 93.2632L256.358 90.834L260.186 88.8097L261.597 88H262L261.597 89.0121L259.582 92.0486L257.567 94.8826L255.955 97.1093L253.94 99.7409L253.134 100.753H252.731L252.328 101.563L250.514 103.587L244.267 109.862L242.051 111.684L240.036 113.506L236.61 115.935L234.797 117.352L230.968 119.781L227.542 121.806L222.908 124.437L219.079 126.462L216.46 127.676L217.467 129.498L219.079 132.534L220.691 136.381L220.893 138L219.885 137.595L213.84 134.559L209.407 132.13L208.802 131.725L207.795 131.927L204.369 133.749L200.137 135.773L196.309 137.798H195.704L196.309 135.773L197.719 132.534L199.936 128.283L200.137 127.474L198.928 127.069L192.48 123.83L188.45 121.401L185.831 119.781L183.009 118.162L180.793 116.543L177.972 114.518L175.554 112.291L173.74 110.874L170.919 108.445L168.904 106.421L167.695 105.409L166.284 103.789L163.866 100.955L162.254 99.1336L160.038 96.2996L158.224 93.8704L155.202 89.2146L155 88Z" fill="white"/>
<path d="M293.594 33H294L293.797 34.0278L292.173 37.1111L290.345 41.0167L287.299 46.1556L285.472 49.0333L283.442 51.7056L281.208 54.9944L279.381 57.2556L277.147 60.1333L275.117 62.3944L273.695 64.0389L272.274 65.4778L270.853 67.1222L267.401 70.6167L264.355 73.2889L262.325 75.1389L260.497 76.5778L257.249 79.25L254.812 81.1L252.376 82.7444L246.081 86.8556L243.848 88.2944L238.569 91.7889L234.508 94.2556L230.65 96.7222L226.995 98.9833L224.964 100.422L222.934 101.656L218.467 104.533L214.812 106.794L214 107L214.609 103.917L215.827 99.8056L217.046 96.7222L218.467 93.6389L221.107 88.5L225.574 81.7167L227.807 79.0444L229.228 77.4L230.853 75.7556L232.274 74.1111L234.305 72.2611L237.147 69.7944L239.787 67.7389L242.629 65.8889L248.112 62.1889L251.97 59.9278L256.03 57.2556L258.873 55.4056L261.919 53.35L265.98 50.8833L270.447 48.0056L275.32 44.9222L278.365 42.8667L281.614 40.8111L285.878 38.1389L290.954 34.85L293.391 33.2056L293.594 33Z" fill="white"/>
<path d="M122 33L123.015 33.41L126.264 35.4598L129.716 37.7147L132.761 39.5596L136.213 41.8144L139.462 43.8643L144.132 46.9391L149.411 50.2188L153.878 53.0886L156.721 54.9335L160.579 57.3934L164.64 60.0582L169.31 62.928L171.949 64.7729L176.213 67.6427L179.462 70.1025L181.289 71.7424L183.523 73.5873L186.162 76.2521L188.396 79.1219L190.629 81.7867L193.066 85.2715L195.299 88.9612L198.142 94.4958L199.766 98.5956L201.391 103.925L202 106.385V107L200.985 106.59L198.954 105.155L194.284 102.285L190.832 100.03L187.787 97.9806L182.711 94.9058L174.995 89.9862L170.325 86.9114L166.061 84.2465L163.218 82.1967L160.782 80.5568L155.096 76.0471L152.863 73.9972L150.629 72.1524L149.208 70.7175L146.975 68.8726L144.944 66.8227L143.117 64.5679L141.086 62.313L139.259 60.0582L137.025 57.3934L134.589 54.3186L131.746 50.4238L129.716 47.349L127.685 43.8643L126.061 41.1994L122.406 34.2299L122 33Z" fill="white"/>
<path d="M289.596 0H290L289.394 2.24768L287.171 7.96904L284.544 13.4861L280.502 20.4334L276.864 25.9505L275.045 28.1981L273.024 30.8545L271.206 32.8978L269.791 34.5325L267.972 36.5759L266.962 37.5975L263.526 40.8669L261.303 42.9102L259.08 44.7492L256.857 46.7926L253.624 49.2446L250.794 51.4923L248.167 53.5356L245.54 55.7833L240.488 59.87L236.648 62.7306L234.223 64.774L232.606 66H232L232.404 63.3437L233.819 57.2136L235.233 53.1269L237.254 48.6316L239.882 44.1362L241.498 41.6842L243.721 39.0279L245.136 37.1889L247.561 34.5325L250.188 31.8762L253.017 29.6285L255.645 27.5851L258.474 25.3375L261.101 23.0898L263.93 20.8421L266.962 18.3901L268.78 16.9598L271.61 14.7121L273.631 13.0774L276.864 10.4211L279.087 8.58204L282.118 6.13003L287.373 2.04334L289.596 0Z" fill="white"/>
<path d="M127 0L128.014 0.408669L128.622 0.817337V1.22601L129.434 1.63467L133.692 4.90402L137.343 7.76471L139.979 10.0124L142.21 11.8514L144.643 13.8947L146.874 15.5294L149.916 17.9814L152.755 20.2291L154.58 21.8638L157.42 24.1115L161.07 26.9721L163.706 29.0155L166.545 31.4675L168.573 33.3065L172.021 36.7802L173.846 39.0279L176.077 42.0929L178.916 46.7926L180.741 50.2663L182.364 54.1486L183.986 59.4613L184.797 63.3437L185 66L183.783 65.1827L181.755 63.548L179.322 61.5046L177.497 60.0743L175.469 58.4396L173.238 56.6006L170.399 54.3529L167.154 51.6966L163.706 49.0402L160.867 46.7926L158.839 45.1579L156.203 42.9102L153.364 40.4582L146.671 33.7152L144.846 31.4675L143.427 30.0372L141.804 27.7895L138.965 23.9071L136.531 20.2291L134.909 17.5728L132.678 13.6904L130.448 8.99071L128.217 3.67802L127 0.613003V0Z" fill="white"/>
</svg>
