<svg width="18" height="18" viewBox="0 0 18 18" fill="none" xmlns="http://www.w3.org/2000/svg">
<path d="M7.30651 4.22133C7.94859 2.62064 8.26962 1.8203 8.7912 1.70937C8.92835 1.68021 9.07009 1.68021 9.20724 1.70937C9.72882 1.8203 10.0499 2.62064 10.6919 4.22133C11.0571 5.13161 11.2396 5.58675 11.5812 5.89632C11.6771 5.98315 11.7811 6.06048 11.8918 6.12723C12.2867 6.3652 12.7796 6.40935 13.7653 6.49763C15.4341 6.64708 16.2685 6.72181 16.5233 7.19755C16.576 7.29608 16.6119 7.40276 16.6294 7.51316C16.7139 8.04618 16.1005 8.60424 14.8737 9.72036L14.533 10.0303C13.9595 10.5521 13.6727 10.813 13.5069 11.1386C13.4074 11.3339 13.3406 11.5443 13.3094 11.7612C13.2573 12.1229 13.3412 12.5014 13.5092 13.2584L13.5692 13.5289C13.8704 14.8864 14.021 15.5652 13.833 15.8988C13.6641 16.1985 13.3531 16.3904 13.0095 16.4068C12.627 16.425 12.088 15.9858 11.01 15.1074C10.2998 14.5287 9.94469 14.2394 9.55048 14.1263C9.19023 14.023 8.80821 14.023 8.44796 14.1263C8.05375 14.2394 7.69865 14.5287 6.98844 15.1074C5.91046 15.9858 5.37147 16.425 4.98895 16.4068C4.64535 16.3904 4.33431 16.1985 4.16544 15.8988C3.97745 15.5652 4.12805 14.8864 4.42924 13.5289L4.48925 13.2584C4.6572 12.5014 4.74118 12.1229 4.68907 11.7612C4.65781 11.5443 4.59109 11.3339 4.49159 11.1386C4.32572 10.813 4.03894 10.5521 3.4654 10.0303L3.12473 9.72036C1.89794 8.60424 1.28454 8.04618 1.36902 7.51316C1.38651 7.40276 1.42239 7.29608 1.47516 7.19755C1.72996 6.72181 2.56434 6.64708 4.2331 6.49763C5.21889 6.40935 5.71178 6.3652 6.10662 6.12723C6.21737 6.06048 6.32138 5.98315 6.4172 5.89632C6.75881 5.58675 6.94138 5.13161 7.30651 4.22133Z" fill="#F29F02" stroke="#F29F02" stroke-width="2"/>
</svg>
